PathFileType	4	(X/Y/Z)	./resultDataOpenSim/trcMotMarkerGrf/sub06/qtm-04-08.trc
DataRate	CameraRate	NumFrames	NumMarkers	Units	OrigDataRate	OrigDataStartFrame	OrigNumFrames
250.000000	250.000000	11	24	m	250.000000	465	531
Frame#	Time	L.Toe.Tip			R.Toe.Tip			L.Ankle.Lat			R.Ankle.Lat			L.Ankle.Med			R.Ankle.Med			L.Heel			R.Heel			L.Knee.Lat			R.Knee.Lat			L.Knee.Med			R.Knee.Med			L.Thigh.Upper			R.Thigh.Upper			L.ASIS			R.ASIS			V.Sacral			L.Acromium			R.Acromium			C7			L.Elbow			R.Elbow			L.Wrist.Lat			R.Wrist.Lat
		X1	Y1	Z1	X2	Y2	Z2	X3	Y3	Z3	X4	Y4	Z4	X5	Y5	Z5	X6	Y6	Z6	X7	Y7	Z7	X8	Y8	Z8	X9	Y9	Z9	X10	Y10	Z10	X11	Y11	Z11	X12	Y12	Z12	X13	Y13	Z13	X14	Y14	Z14	X15	Y15	Z15	X16	Y16	Z16	X17	Y17	Z17	X18	Y18	Z18	X19	Y19	Z19	X20	Y20	Z20	X21	Y21	Z21	X22	Y22	Z22	X23	Y23	Z23	X24	Y24	Z24

465	1.856	1.7101099	0.033976553	-0.030061892	1.0377591	0.073709417	0.12867827	1.5873986	0.067113524	-0.064039259	1.0403133	0.21420304	0.15741596	1.5821702	0.079068308	0.022793926	1.0812118	0.20092871	0.078245456	1.5082472	0.039913606	-0.028781321	1.0196978	0.25904038	0.092449174	1.6391315	0.43885107	-0.067419017	1.3886666	0.38256145	0.19626577	1.6047344	0.43124639	0.048209373	1.3901473	0.35876927	0.062170799	1.4706789	0.79841715	-0.14113078	1.3515063	0.75874072	0.20357423	1.528567	0.83570224	-0.084273596	1.5035085	0.80787425	0.15676076	1.32703	0.8963987	0.034692611	1.4395327	1.2997413	-0.15727903	1.4445651	1.2992975	0.20606098	1.3634865	1.334682	0.024195669	1.3330581	1.0047146	-0.19183169	1.3726457	0.99098351	0.30194648	1.3995424	0.77872625	-0.2565714	1.5840677	0.85665233	0.28699048
466	1.86	1.7100901	0.033962657	-0.03008462	1.0526662	0.075921849	0.12938256	1.5873974	0.06708329	-0.064208369	1.0524623	0.21674203	0.15735457	1.5819001	0.07905232	0.022790168	1.0933707	0.20359805	0.078174765	1.5082127	0.039967541	-0.028826402	1.0313565	0.26062115	0.092039399	1.6418325	0.43845122	-0.067720357	1.4005993	0.38356982	0.19711478	1.6071059	0.4307016	0.047886411	1.4023943	0.36040134	0.063278379	1.4764601	0.79959527	-0.14149575	1.3595489	0.75950608	0.20219441	1.5343508	0.83668961	-0.084599309	1.5094354	0.80941935	0.15657084	1.3330184	0.89785908	0.034101241	1.4461591	1.3011749	-0.15727952	1.4502528	1.3006666	0.20608741	1.3697981	1.3361735	0.024055764	1.3410338	1.0052762	-0.19244218	1.376438	0.99234671	0.30070281	1.4102456	0.7799371	-0.25663764	1.5869149	0.85603435	0.28716992
467	1.864	1.7100597	0.033954515	-0.030094828	1.0680404	0.077901436	0.13006685	1.5874302	0.067052254	-0.064268428	1.064908	0.21893384	0.15728974	1.5816298	0.079046786	0.022782796	1.1058281	0.20596105	0.078103335	1.5081515	0.040034794	-0.028968758	1.0432006	0.26184738	0.09170771	1.6443668	0.43804326	-0.067979714	1.4125921	0.38476714	0.19789488	1.6093137	0.4302129	0.04758448	1.4145276	0.36222726	0.06440395	1.4822221	0.80076528	-0.14182533	1.367773	0.76029754	0.20085677	1.5400956	0.83769857	-0.084877722	1.5152365	0.81103065	0.15643414	1.338972	0.89936387	0.033520851	1.4527309	1.3026672	-0.15725709	1.4558698	1.3020938	0.20613378	1.3760432	1.3376913	0.023914398	1.3489947	1.005915	-0.19307866	1.3806665	0.99366568	0.29953434	1.4210038	0.78124633	-0.25667936	1.5896746	0.85550424	0.28739026
468	1.868	1.7100227	0.033948119	-0.030094123	1.0838514	0.079657174	0.13078863	1.5874653	0.067022137	-0.064295676	1.0776364	0.22069225	0.1572405	1.5814079	0.079065707	0.022772054	1.1185844	0.20793155	0.078062806	1.5080687	0.040097448	-0.029168855	1.0550684	0.2627735	0.091554471	1.6467307	0.43763998	-0.068203022	1.4246077	0.38613447	0.19860709	1.6113963	0.42980284	0.047318698	1.4265351	0.36420972	0.065330469	1.4879503	0.80192632	-0.14212104	1.3760474	0.76116057	0.19958417	1.5458096	0.83872736	-0.085121408	1.5209281	0.81270463	0.15634096	1.3448633	0.9009391	0.032965066	1.4592547	1.3042163	-0.1572128	1.4614326	1.3035746	0.20620019	1.3822272	1.3392327	0.02376932	1.356957	1.0066324	-0.19371951	1.38516	0.9950202	0.29842495	1.4318157	0.78265382	-0.25668923	1.5923613	0.85505212	0.28764948
469	1.872	1.7099884	0.033940436	-0.03008431	1.1000252	0.081211803	0.13153538	1.5874902	0.066993089	-0.064329978	1.0906118	0.22200935	0.15721519	1.5813346	0.079134221	0.022751903	1.1316024	0.20951302	0.07807493	1.5079925	0.040135686	-0.029297634	1.066983	0.26342085	0.091451771	1.6489494	0.43725414	-0.068387024	1.4366328	0.38764284	0.19927468	1.613412	0.42948826	0.047109072	1.4384323	0.36632878	0.065953282	1.4936523	0.80307044	-0.14239021	1.3843732	0.76208862	0.19836727	1.5515147	0.83976985	-0.085346041	1.5265474	0.81443636	0.15628595	1.3506861	0.90259486	0.032429558	1.4657408	1.3058176	-0.15714554	1.4669585	1.3051014	0.20628495	1.3883601	1.3407985	0.023630544	1.3649591	1.0074178	-0.19431572	1.3895963	0.99648878	0.29733581	1.442682	0.78415498	-0.25666172	1.5950039	0.85467005	0.28794062
470	1.876	1.7099644	0.033930161	-0.030067879	1.1163323	0.082539796	0.13233267	1.5875176	0.066951238	-0.064345386	1.1037848	0.22294946	0.15720018	1.5815172	0.079277335	0.022712516	1.1448303	0.21076297	0.078140736	1.507951	0.040150518	-0.029273506	1.0790644	0.26377593	0.091230239	1.6510669	0.4368971	-0.068517843	1.4486662	0.38927867	0.19990853	1.6153825	0.42927228	0.046962221	1.4502714	0.36854632	0.066325281	1.4993667	0.80418101	-0.14264741	1.3925287	0.76314345	0.19724774	1.5572405	0.84082048	-0.085568424	1.5321378	0.81621867	0.15626277	1.3564476	0.90430834	0.031899121	1.4721967	1.3074665	-0.15705455	1.4724597	1.3066652	0.20638422	1.3944557	1.3423932	0.023510355	1.3730184	1.0082542	-0.19485012	1.3937385	0.99808378	0.29623601	1.4535994	0.78574345	-0.2565999	1.5976196	0.85435907	0.28825746
471	1.88	1.7099512	0.033916817	-0.030047255	1.1325078	0.083589528	0.13324147	1.5875633	0.06686955	-0.064284208	1.1171002	0.22360196	0.15716867	1.581958	0.079489425	0.022653507	1.158224	0.21173183	0.078236111	1.5079456	0.040165341	-0.029161407	1.0913601	0.2638196	0.090874336	1.6531084	0.43657249	-0.068587075	1.4606919	0.39105466	0.20050806	1.6172827	0.42914411	0.046868419	1.4621262	0.37080609	0.066582652	1.5051483	0.80524336	-0.14290636	1.4002901	0.76439079	0.19630795	1.5629944	0.841877	-0.085798441	1.5377278	0.81804155	0.15626241	1.3621819	0.90604418	0.03135887	1.4786279	1.3091616	-0.15694099	1.4779409	1.3082576	0.20649348	1.400524	1.3440091	0.023416987	1.381127	1.0091231	-0.1953381	1.3976299	0.99976228	0.295135	1.464567	0.78741491	-0.25651012	1.6002034	0.85412397	0.28859673
472	1.884	1.7099419	0.033901187	-0.030024373	1.1484718	0.084351764	0.13428434	1.5876255	0.066736873	-0.064129304	1.1305193	0.22403315	0.15710729	1.5824782	0.079713984	0.022592759	1.1717525	0.21243043	0.07833232	1.5079544	0.040201728	-0.029070673	1.1038365	0.26354393	0.090479613	1.6550681	0.43627251	-0.068603008	1.4726786	0.39299439	0.20106913	1.6190921	0.42908901	0.046818161	1.4740775	0.3730592	0.066851628	1.5109767	0.80625827	-0.14316203	1.4077516	0.76580112	0.1955926	1.5687393	0.84294009	-0.086034986	1.5433283	0.81989461	0.15627623	1.3679684	0.90778583	0.030793827	1.4850384	1.3109051	-0.15680968	1.4833998	1.3098729	0.20660922	1.4065682	1.3456278	0.023352731	1.389266	1.0100112	-0.19580173	1.4015095	1.0014808	0.29407471	1.4755918	0.78916717	-0.25639363	1.6027396	0.85396445	0.28895744
473	1.888	1.7099291	0.033886366	-0.030000887	1.1643458	0.084870338	0.13542581	1.5876804	0.066593485	-0.063962264	1.1440248	0.22426519	0.15702779	1.5828546	0.079886069	0.02255225	1.1853995	0.21284342	0.078416108	1.5079539	0.040267746	-0.029036901	1.116462	0.26296106	0.09011421	1.6569382	0.43598585	-0.068577872	1.4846026	0.39510624	0.20158504	1.620821	0.42909273	0.046808517	1.4861663	0.37528535	0.067189368	1.5166685	0.80724578	-0.143383	1.4152117	0.76728371	0.19508027	1.5744245	0.84401295	-0.086275065	1.5489352	0.8217707	0.15629697	1.3738896	0.90953045	0.030194263	1.4914293	1.3126972	-0.15666648	1.4888383	1.3115084	0.20672952	1.4125948	1.3472489	0.023315316	1.3974143	1.0109163	-0.19626104	1.4054905	1.0032347	0.29307471	1.486684	0.791	-0.25624559	1.605217	0.85387445	0.28933907
474	1.892	1.7099105	0.033876415	-0.029977296	1.1802927	0.085204369	0.1366173	1.5876999	0.06651141	-0.063916913	1.1575836	0.22427436	0.15694935	1.58303	0.07999427	0.022536412	1.1991681	0.21296051	0.078494477	1.5079308	0.040362309	-0.029041713	1.1292246	0.26209804	0.089792995	1.6587296	0.43570568	-0.06851299	1.4964539	0.39737795	0.20204785	1.6224675	0.42913657	0.046834537	1.4983337	0.3774965	0.067570341	1.5220337	0.80823455	-0.14354358	1.4229034	0.76876658	0.19472197	1.5800312	0.8450991	-0.086520798	1.5545283	0.82366441	0.15631757	1.3799108	0.91127745	0.029583399	1.4977976	1.3145305	-0.15651229	1.4942744	1.3131618	0.20685197	1.4186184	1.3488982	0.023300887	1.4055562	1.011847	-0.1967299	1.4093921	1.0050555	0.29209171	1.497843	0.79291496	-0.2560584	1.6076402	0.85384712	0.28973984
475	1.896	1.7098913	0.033873797	-0.02995263	1.1964157	0.085402588	0.1378314	1.5876827	0.066529539	-0.064043074	1.171106	0.22400238	0.15687711	1.5830969	0.08007221	0.022534525	1.2130691	0.21279186	0.078583155	1.5078845	0.040469472	-0.029069141	1.1420989	0.26097194	0.089525955	1.6604535	0.43543046	-0.06840925	1.5082349	0.399794	0.20245438	1.6240167	0.42920197	0.046889446	1.5104839	0.37972705	0.067931227	1.5271487	0.80924233	-0.14365813	1.4308984	0.77022397	0.1944812	1.5855651	0.84620059	-0.086770623	1.5600871	0.82556926	0.15633108	1.3858424	0.9130399	0.029014243	1.5041431	1.3163987	-0.1563436	1.4997393	1.3148254	0.2069693	1.4246487	1.3505947	0.0233043	1.4136879	1.0128155	-0.19721323	1.4129693	1.006954	0.29106306	1.5090465	0.79491229	-0.25582401	1.6100269	0.85387724	0.29015835
